<?xml version="1.0" encoding="utf-8"?>
<!-- Generator: Adobe Illustrator 25.2.0, SVG Export Plug-In . SVG Version: 6.00 Build 0)  -->
<svg version="1.1" id="Layer_1" xmlns="http://www.w3.org/2000/svg" xmlns:xlink="http://www.w3.org/1999/xlink" x="0px" y="0px"
	 viewBox="0 0 7 7.5" style="enable-background:new 0 0 7 7.5;" xml:space="preserve">
<style type="text/css">
	.st0{fill:#003966;}
</style>
<path class="st0" d="M6.8,1.9L3.7,0C3.6,0,3.4,0,3.3,0L0.2,1.9C0.1,1.9,0,2,0,2.2v3.1c0,0.1,0.1,0.2,0.2,0.3l3.1,1.8
	c0.1,0,0.1,0,0.2,0c0.1,0,0.1,0,0.2,0l3.1-1.8C6.9,5.6,7,5.4,7,5.3V2.2C7,2,6.9,1.9,6.8,1.9z M3.5,0.8l2.4,1.4L3.5,3.6L1,2.2
	L3.5,0.8z M0.7,2.8l2.4,1.4v2.3L0.7,5.1V2.8z M6.3,5.1L3.8,6.5V4.2l2.4-1.4V5.1z"/>
</svg>
