<?xml version="1.0" encoding="utf-8"?>
<!-- Generator: Adobe Illustrator 25.0.1, SVG Export Plug-In . SVG Version: 6.00 Build 0)  -->
<svg version="1.1" id="Layer_1" xmlns="http://www.w3.org/2000/svg" xmlns:xlink="http://www.w3.org/1999/xlink" x="0px" y="0px"
	 viewBox="0 0 108.3 100" style="enable-background:new 0 0 108.3 100;" xml:space="preserve">
<style type="text/css">
	.st0{fill-rule:evenodd;clip-rule:evenodd;fill:#003966;}
</style>
<path class="st0" d="M54.2,0c2.3,0,4.2,1.9,4.2,4.2v91.7c0,2.3-1.9,4.2-4.2,4.2c-2.3,0-4.2-1.9-4.2-4.2V4.2C50,1.9,51.9,0,54.2,0z
	 M37.5,16.7c2.3,0,4.2,1.9,4.2,4.2v58.3c0,2.3-1.9,4.2-4.2,4.2s-4.2-1.9-4.2-4.2V20.8C33.3,18.5,35.2,16.7,37.5,16.7z M70.8,16.7
	c2.3,0,4.2,1.9,4.2,4.2v58.3c0,2.3-1.9,4.2-4.2,4.2s-4.2-1.9-4.2-4.2V20.8C66.7,18.5,68.5,16.7,70.8,16.7z M20.8,29.2
	c2.3,0,4.2,1.9,4.2,4.2v33.3c0,2.3-1.9,4.2-4.2,4.2s-4.2-1.9-4.2-4.2V33.3C16.7,31,18.5,29.2,20.8,29.2z M87.5,29.2
	c2.3,0,4.2,1.9,4.2,4.2v33.3c0,2.3-1.9,4.2-4.2,4.2s-4.2-1.9-4.2-4.2V33.3C83.3,31,85.2,29.2,87.5,29.2z M4.2,37.5
	c2.3,0,4.2,1.9,4.2,4.2v16.7c0,2.3-1.9,4.2-4.2,4.2S0,60.6,0,58.3V41.7C0,39.4,1.9,37.5,4.2,37.5z M104.2,37.5
	c2.3,0,4.2,1.9,4.2,4.2v16.7c0,2.3-1.9,4.2-4.2,4.2c-2.3,0-4.2-1.9-4.2-4.2V41.7C100,39.4,101.9,37.5,104.2,37.5z"/>
</svg>
