<?xml version="1.0" encoding="utf-8"?>
<!-- Generator: Adobe Illustrator 25.0.1, SVG Export Plug-In . SVG Version: 6.00 Build 0)  -->
<svg version="1.1" id="Layer_1" xmlns="http://www.w3.org/2000/svg" xmlns:xlink="http://www.w3.org/1999/xlink" x="0px" y="0px"
	 viewBox="0 0 100 75" style="enable-background:new 0 0 100 75;" xml:space="preserve">
<style type="text/css">
	.st0{fill-rule:evenodd;clip-rule:evenodd;fill:#003966;}
</style>
<path class="st0" d="M90.6,6.2H9.4c-1.7,0-3.1,1.4-3.1,3.1v56.2c0,1.7,1.4,3.1,3.1,3.1h81.2c1.7,0,3.1-1.4,3.1-3.1V9.4
	C93.8,7.6,92.4,6.2,90.6,6.2z M9.4,0C4.2,0,0,4.2,0,9.4v56.2C0,70.8,4.2,75,9.4,75h81.2c5.2,0,9.4-4.2,9.4-9.4V9.4
	c0-5.2-4.2-9.4-9.4-9.4H9.4z"/>
<path class="st0" d="M18.8,21.9c0-1.7,1.4-3.1,3.1-3.1h56.2c1.7,0,3.1,1.4,3.1,3.1S79.9,25,78.1,25H21.9
	C20.1,25,18.8,23.6,18.8,21.9z M18.8,37.5c0-1.7,1.4-3.1,3.1-3.1h56.2c1.7,0,3.1,1.4,3.1,3.1c0,1.7-1.4,3.1-3.1,3.1H21.9
	C20.1,40.6,18.8,39.2,18.8,37.5z M18.8,53.1c0-1.7,1.4-3.1,3.1-3.1h37.5c1.7,0,3.1,1.4,3.1,3.1s-1.4,3.1-3.1,3.1H21.9
	C20.1,56.2,18.8,54.9,18.8,53.1z"/>
</svg>
