<?xml version="1.0" encoding="utf-8"?>
<!-- Generator: Adobe Illustrator 25.0.1, SVG Export Plug-In . SVG Version: 6.00 Build 0)  -->
<svg version="1.1" id="Layer_1" xmlns="http://www.w3.org/2000/svg" xmlns:xlink="http://www.w3.org/1999/xlink" x="0px" y="0px"
	 viewBox="0 0 100 75" style="enable-background:new 0 0 100 75;" xml:space="preserve">
<style type="text/css">
	.st0{fill-rule:evenodd;clip-rule:evenodd;fill:#003966;}
</style>
<path class="st0" d="M6.3,62.5l16.5-14.7c1.1-1,2.7-1.2,3.9-0.4l16.6,11.1l23.2-23.2c1-1,2.4-1.2,3.6-0.6l23.6,12.2V9.4
	c0-1.7-1.4-3.1-3.1-3.1H9.4c-1.7,0-3.1,1.4-3.1,3.1 M9.4,0C4.2,0,0,4.2,0,9.4v56.2C0,70.8,4.2,75,9.4,75h81.2c5.2,0,9.4-4.2,9.4-9.4
	V9.4c0-5.2-4.2-9.4-9.4-9.4H9.4z M37.5,21.9c0,5.2-4.2,9.4-9.4,9.4s-9.4-4.2-9.4-9.4s4.2-9.4,9.4-9.4S37.5,16.7,37.5,21.9z"/>
</svg>
