<?xml version="1.0" encoding="UTF-8"?>
<svg width="20px" height="20px" viewBox="0 0 20 20" version="1.1" xmlns="http://www.w3.org/2000/svg" xmlns:xlink="http://www.w3.org/1999/xlink">
    <title>Artboard</title>
    <g id="Artboard" stroke="none" stroke-width="1" fill="none" fill-rule="evenodd">
        <path d="M9.99884758,1.73991673 C9.99884758,1.61869595 10.0690384,1.50843729 10.1788181,1.45702824 C10.2885978,1.40561919 10.4182046,1.42233542 10.5113476,1.49991673 L13.4613476,3.95741673 C13.6113476,4.08241673 13.6113476,4.31241673 13.4613476,4.43741673 L10.5113476,6.89491673 C10.4182046,6.97249805 10.2885978,6.98921428 10.1788181,6.93780523 C10.0690384,6.88639618 9.99884758,6.77613752 9.99884758,6.65491673 L9.99884758,4.82241673 C7.22433527,4.82348566 4.78264779,6.65353028 4.00305326,9.31626422 C3.22345873,11.9789982 4.29259826,14.8369418 6.62842641,16.3342148 C8.96425456,17.8314879 12.0075555,17.6096313 14.1015395,15.789425 C16.1955234,13.9692187 16.838874,10.9864346 15.6813476,8.46491673 C15.5538892,8.1547752 15.6938801,7.79931375 15.9985934,7.6593738 C16.3033068,7.51943386 16.6641567,7.64488364 16.8163476,7.94366673 C18.2053202,10.9696517 17.4330551,14.5491023 14.9200032,16.733227 C12.4069513,18.9173516 8.75480433,19.1832127 5.95193243,17.3860651 C3.14906054,15.5889175 1.86654604,12.1590463 2.80263948,8.96380619 C3.73873292,5.76856607 6.66930857,3.57298273 9.99884758,3.57241673 L9.99884758,1.73991673 Z" id="Path" fill="#555555" fill-rule="nonzero"></path>
    </g>
</svg>