<?xml version="1.0" encoding="utf-8"?>
<!-- Generator: Adobe Illustrator 25.0.1, SVG Export Plug-In . SVG Version: 6.00 Build 0)  -->
<svg version="1.1" id="Layer_1" xmlns="http://www.w3.org/2000/svg" xmlns:xlink="http://www.w3.org/1999/xlink" x="0px" y="0px"
	 viewBox="0 0 12 7.5" style="enable-background:new 0 0 12 7.5;" xml:space="preserve">
<style type="text/css">
	.st0{fill-rule:evenodd;clip-rule:evenodd;fill:#003966;}
</style>
<path class="st0" d="M0,1.5C0,0.7,0.7,0,1.5,0h5.6c0.8,0,1.4,0.6,1.5,1.3l2.3-1c0.4-0.2,0.8,0,1,0.4C12,0.7,12,0.8,12,1v5.6
	c0,0.4-0.3,0.7-0.8,0.7c-0.1,0-0.2,0-0.3-0.1l-2.3-1C8.5,6.9,7.9,7.5,7.1,7.5H1.5C0.7,7.5,0,6.8,0,6V1.5z M8.6,5.4l2.6,1.2V1
	L8.6,2.1C8.6,2.1,8.6,5.4,8.6,5.4z M1.5,0.8c-0.4,0-0.8,0.3-0.8,0.8V6c0,0.4,0.3,0.8,0.8,0.8h5.6c0.4,0,0.8-0.3,0.8-0.8V1.5
	c0-0.4-0.3-0.8-0.8-0.8H1.5z"/>
</svg>
