<?xml version="1.0" encoding="utf-8"?>
<!-- Generator: Adobe Illustrator 25.0.1, SVG Export Plug-In . SVG Version: 6.00 Build 0)  -->
<svg version="1.1" id="Layer_1" xmlns="http://www.w3.org/2000/svg" xmlns:xlink="http://www.w3.org/1999/xlink" x="0px" y="0px"
	 viewBox="0 0 100 93.2" style="enable-background:new 0 0 100 93.2;" xml:space="preserve">
<style type="text/css">
	.st0{fill-rule:evenodd;clip-rule:evenodd;fill:#003966;}
</style>
<path class="st0" d="M29,21c1.3,1.3,1.3,3.4,0,4.7c0,0,0,0,0,0l-21,21l21,21c1.3,1.3,1.3,3.4,0,4.7s-3.4,1.3-4.7,0L1,49
	c-1.3-1.3-1.3-3.4,0-4.7c0,0,0,0,0,0L24.3,21C25.6,19.7,27.7,19.7,29,21C29,21,29,21,29,21z M71,21c-1.3,1.3-1.3,3.4,0,4.7
	c0,0,0,0,0,0l21,21l-21,21c-1.3,1.3-1.3,3.4,0,4.7s3.4,1.3,4.7,0L99,49c1.3-1.3,1.3-3.4,0-4.7c0,0,0,0,0,0L75.7,21
	C74.4,19.7,72.3,19.7,71,21C71,21,71,21,71,21z M64.3,0.1c1.8,0.5,2.7,2.4,2.2,4.2L39.8,91c-0.6,1.7-2.5,2.6-4.2,2
	c-1.6-0.6-2.6-2.3-2.1-4L60.1,2.3C60.7,0.6,62.6-0.4,64.3,0.1L64.3,0.1z"/>
</svg>
